<?xml version="1.0" encoding="UTF-8"?>
<svg id="Capa_1" xmlns="http://www.w3.org/2000/svg" viewBox="0 0 42 42">
  <defs>
    <style>
      .cls-1 {
        fill: #007934;
      }

      .cls-2 {
        fill: #fff;
      }

      .cls-3 {
        fill: #78d201;
      }
    </style>
  </defs>
  <path class="cls-3" d="M35.76,8.1l-6.03.1c-.09-.41-.12-.83-.1-1.25.01-.27.19-3.15,2.18-3.79,1-.31,2.1-.05,2.86.68.46.47.59,1.03.83,2.03.17.73.26,1.48.26,2.23h0Z"/>
  <path class="cls-3" d="M12.28,18.05c2.59,0,4.69-2.1,4.69-4.69s-2.1-4.69-4.69-4.69-4.69,2.1-4.69,4.69,2.1,4.69,4.69,4.69Z"/>
  <path class="cls-1" d="M11.53,16.02h1.51c.84,0,1.51-.68,1.51-1.52,0-.21-.17-.38-.38-.38s-.38.17-.38.38c0,.42-.34.76-.75.76h-1.51c-.42,0-.75-.36-.74-.78,0-.41.34-.74.74-.74h1.51c.84,0,1.52-.68,1.52-1.52s-.68-1.52-1.52-1.52h-1.51c-.84,0-1.51.68-1.51,1.52,0,.21.17.38.38.38s.38-.17.38-.38c0-.42.34-.76.75-.76h1.51c.42,0,.75.36.74.78,0,.41-.34.74-.74.74h-1.51c-.84,0-1.52.68-1.52,1.52,0,.84.68,1.52,1.52,1.52h0Z"/>
  <path class="cls-1" d="M9.88,14.5c0-.44.17-.86.48-1.17.31-.31.73-.49,1.17-.48h1.51c.34,0,.61-.28.62-.62,0-.17-.06-.33-.17-.45-.11-.12-.27-.19-.44-.19h-1.51c-.17,0-.33.07-.44.18-.12.12-.18.28-.18.44,0,.28-.23.51-.51.51-.14,0-.26-.05-.36-.15-.1-.09-.15-.22-.15-.36,0-.44.17-.86.48-1.16.31-.31.72-.49,1.16-.49h1.51c.91,0,1.65.74,1.65,1.65,0,.91-.74,1.65-1.65,1.65h-1.51c-.34,0-.61.28-.62.62,0,.17.06.33.17.45.11.12.27.19.44.19h1.51c.17,0,.33-.07.44-.18.12-.12.18-.28.18-.44,0-.14.05-.26.15-.36.09-.1.22-.15.36-.15.28,0,.51.23.51.51,0,.91-.73,1.65-1.64,1.65h-1.51c-.91,0-1.65-.74-1.65-1.65ZM14.17,14.25c-.07,0-.13.02-.18.07-.05.05-.07.11-.07.17,0,.24-.09.46-.26.63-.17.17-.39.26-.63.26h-1.51c-.24,0-.46-.1-.62-.27-.16-.17-.25-.4-.25-.64,0-.48.4-.86.87-.87h1.51c.77,0,1.39-.62,1.39-1.39,0-.77-.62-1.39-1.39-1.39h-1.51c-.37,0-.72.15-.98.41-.26.26-.4.61-.4.98,0,.07.03.13.07.17.05.05.11.07.17.07.14,0,.25-.11.25-.25,0-.24.09-.46.26-.63.17-.17.39-.26.63-.26h1.51c.24,0,.46.1.62.27.16.17.25.4.25.64,0,.48-.4.86-.87.87h-1.51c-.37,0-.72.15-.98.41-.26.26-.41.61-.41.98,0,.77.62,1.39,1.39,1.39h1.51c.76,0,1.38-.62,1.38-1.39,0-.14-.11-.25-.25-.25Z"/>
  <path class="cls-1" d="M12.28,11.07c.21,0,.38-.17.38-.38v-.76c0-.21-.17-.38-.38-.38s-.38.17-.38.38v.76c0,.21.17.38.38.38h0Z"/>
  <path class="cls-1" d="M11.77,10.7v-.76c0-.28.23-.51.51-.51s.51.23.51.51v.76c0,.28-.23.51-.51.51-.28,0-.51-.23-.51-.51h0ZM12.28,9.69c-.14,0-.25.11-.25.25v.76c0,.14.11.25.25.25.14,0,.25-.11.25-.25v-.76c0-.14-.11-.25-.25-.25Z"/>
  <path class="cls-1" d="M12.28,17.16c.21,0,.38-.17.38-.38v-1.14c0-.21-.17-.38-.38-.38s-.38.17-.38.38v1.14c0,.21.17.38.38.38h0Z"/>
  <path class="cls-1" d="M12.28,17.3c-.28,0-.51-.23-.51-.51v-1.14c0-.28.23-.51.51-.51s.51.23.51.51v1.14c0,.28-.23.51-.51.51h0ZM12.28,15.4c-.14,0-.25.11-.25.25v1.14c0,.14.11.25.25.25.14,0,.25-.11.25-.25v-1.14c0-.14-.11-.25-.25-.25h0Z"/>
  <path class="cls-1" d="M25.38,11.14h-5.56c-.33,0-.6.27-.6.6s.27.6.6.6h5.56c.33,0,.6-.27.6-.6s-.27-.6-.6-.6Z"/>
  <path class="cls-1" d="M19.02,11.75c0-.44.36-.8.8-.8h5.56c.44,0,.8.36.8.8s-.36.8-.8.8h-5.56c-.44,0-.8-.36-.8-.8ZM19.81,11.33c-.23,0-.41.18-.41.41,0,.23.18.41.41.41h5.56c.23,0,.41-.18.41-.41,0-.23-.18-.41-.41-.41h-5.56Z"/>
  <path class="cls-1" d="M25.38,14.76h-5.56c-.33,0-.6.27-.6.6s.27.6.6.6h5.56c.33,0,.6-.27.6-.6s-.27-.6-.6-.6Z"/>
  <path class="cls-1" d="M19.02,15.36c0-.44.36-.8.8-.8h5.56c.44,0,.8.36.8.8s-.36.8-.8.8h-5.56c-.44,0-.8-.36-.8-.8ZM19.81,14.94c-.23,0-.41.18-.41.41,0,.23.18.41.41.41h5.56c.23,0,.41-.18.41-.41,0-.23-.18-.41-.41-.41h-5.56Z"/>
  <path class="cls-1" d="M28.97,6.38c-.01-1.09.47-2.13,1.31-2.83.36-.31.79-.53,1.25-.66.35-.1.71-.15,1.07-.15,1.99.02,3.58,1.65,3.56,3.64v1.51c0,.5-.4.9-.9.9h-6.28v-2.41h0ZM34.96,6.38c0-1.32-1.07-2.4-2.4-2.4h0c-1.32,0-2.4,1.07-2.39,2.4v1.21h4.79v-1.21h0Z"/>
  <path class="cls-1" d="M28.78,6.38c0-1.15.49-2.24,1.37-2.98.39-.33.84-.57,1.32-.7,1.17-.34,2.43-.11,3.4.63.95.72,1.5,1.85,1.48,3.05v1.51c0,.61-.49,1.09-1.09,1.09h-6.47v-2.61h0ZM32.56,2.94c-.33,0-.66.05-.98.14-.43.12-.83.33-1.18.62-.79.67-1.25,1.65-1.24,2.68v2.22h6.09c.39,0,.71-.32.71-.71v-1.51c.02-1.07-.48-2.09-1.33-2.74-.59-.46-1.33-.7-2.08-.7h0ZM29.98,6.38c0-1.43,1.16-2.59,2.59-2.59,1.43,0,2.59,1.16,2.59,2.59v1.4h-5.18v-1.4ZM34.77,6.38c0-1.22-.99-2.2-2.2-2.2-1.22,0-2.2.99-2.2,2.2v1.01h4.41v-1.01Z"/>
  <path class="cls-1" d="M4.82,35.06c-.55,0-1-.45-1-1V6.98c0-2.32,1.87-4.22,4.19-4.23h24.55v1.21h-.02c-1.33,0-2.4,1.09-2.4,2.41v27.68c0,.17-.05.35-.13.5-.27.48-.88.64-1.36.37l-1.21-.69-1.59.92c-.31.18-.69.18-1,0l-1.59-.92-1.59.92c-.31.18-.69.18-1,0l-1.59-.92-1.59.92c-.31.18-.69.18-1,0l-1.59-.92-1.59.92c-.31.18-.69.18-1,0l-1.59-.92-1.59.92c-.31.18-.69.18-1,0l-1.59-.92-1.2.69c-.15.09-.32.13-.5.13h0ZM27.98,33.14l.99.57V6.37c0-.89.32-1.75.91-2.41H8.01c-1.65.02-2.98,1.37-2.97,3.02v26.73l.98-.57c.32-.18.71-.18,1.03,0l1.57.91,1.58-.91c.32-.18.71-.18,1.03,0l1.58.91,1.58-.91c.32-.18.71-.18,1.03,0l1.58.91,1.58-.91c.32-.18.71-.18,1.03,0l1.58.91,1.58-.91c.32-.18.71-.18,1.03,0l1.58.91,1.58-.91c.32-.18.71-.18,1.03,0h0Z"/>
  <path class="cls-1" d="M12.2,35.32l-1.5-.86-1.5.86c-.37.21-.82.21-1.19,0l-1.49-.86-1.1.63c-.37.21-.82.21-1.19,0-.37-.21-.6-.61-.59-1.03V6.98c0-2.43,1.95-4.41,4.38-4.42h24.75v1.59h-.21c-.59,0-1.15.23-1.56.65-.42.42-.65.99-.65,1.58v27.68c0,.43-.23.82-.59,1.03-.37.21-.82.21-1.19,0l-1.11-.63-1.5.86c-.37.21-.82.21-1.19,0l-1.5-.86-1.5.86c-.37.21-.82.21-1.19,0l-1.5-.86-1.5.86c-.37.21-.82.21-1.19,0l-1.5-.86-1.5.86c-.18.1-.39.16-.59.16s-.41-.06-.59-.16h0ZM16.58,34.99c.25.14.56.14.81,0l1.69-.97,1.69.97c.25.14.56.14.81,0l1.69-.97,1.69.97c.25.14.56.14.81,0l1.69-.97,1.3.75c.25.15.56.15.81,0,.25-.14.4-.41.4-.7V6.38c0-.69.27-1.36.76-1.85.44-.44,1.03-.71,1.65-.75v-.83H8.01c-2.22.01-4.01,1.82-4,4.03v27.08c0,.29.15.55.4.7.25.15.56.15.81,0l1.29-.74,1.69.97c.25.14.56.14.81,0l1.69-.97,1.69.97c.25.14.56.14.81,0l1.69-.97,1.69.97h0ZM6.96,33.31c-.26-.15-.58-.15-.84,0l-1.27.73V6.98c0-1.76,1.41-3.19,3.16-3.21h22.3l-.28.32c-.56.63-.86,1.44-.86,2.29v27.67l-1.28-.73c-.26-.15-.58-.15-.84,0l-1.67.97-1.68-.97c-.26-.15-.58-.15-.84,0l-1.67.97-1.68-.97c-.26-.15-.58-.15-.84,0l-1.67.97-1.67-.97c-.26-.15-.58-.15-.84,0l-1.67.97-1.67-.97c-.26-.15-.58-.15-.84,0l-1.67.97-1.67-.96h0ZM26.86,32.98c.38-.22.84-.22,1.22,0l.7.4V6.38c0-.8.24-1.57.71-2.22H8.01c-1.54.02-2.78,1.28-2.78,2.83v26.4l.7-.4c.38-.22.84-.22,1.22,0l1.48.86,1.48-.86c.38-.22.84-.22,1.22,0l1.48.86,1.48-.86c.38-.22.84-.22,1.22,0l1.48.86,1.48-.86c.38-.22.84-.22,1.22,0l1.48.86,1.48-.86c.38-.22.84-.22,1.22,0l1.48.86,1.48-.86h0Z"/>
  <path class="cls-1" d="M25.37,21.02H8.62c-.33,0-.6.27-.6.6s.27.6.6.6h16.76c.33,0,.6-.27.6-.6s-.27-.6-.6-.6Z"/>
  <path class="cls-1" d="M7.82,21.62c0-.44.36-.8.8-.8h16.76c.44,0,.8.36.8.8s-.36.8-.8.8H8.62c-.44,0-.8-.36-.8-.8h0ZM8.62,21.21c-.23,0-.41.18-.41.41,0,.23.18.41.41.41h16.76c.23,0,.41-.18.41-.41,0-.23-.18-.41-.41-.41H8.62Z"/>
  <path class="cls-1" d="M25.37,24.64H8.62c-.33,0-.6.27-.6.6s.27.6.6.6h16.76c.33,0,.6-.27.6-.6s-.27-.6-.6-.6Z"/>
  <path class="cls-1" d="M7.82,25.24c0-.44.36-.8.8-.8h16.76c.44,0,.8.36.8.8s-.36.8-.8.8H8.62c-.44,0-.8-.36-.8-.8h0ZM8.62,24.83c-.23,0-.41.18-.41.41,0,.23.18.41.41.41h16.76c.23,0,.41-.18.41-.41,0-.23-.18-.41-.41-.41H8.62Z"/>
  <path class="cls-2" d="M27.72,38.65c5.48,0,9.91-4.44,9.91-9.91s-4.44-9.91-9.91-9.91-9.91,4.44-9.91,9.91,4.44,9.91,9.91,9.91Z"/>
  <path class="cls-1" d="M27.72,39.43c-5.9,0-10.7-4.8-10.7-10.7s4.8-10.7,10.7-10.7,10.7,4.8,10.7,10.7-4.8,10.7-10.7,10.7ZM27.72,19.6c-5.04,0-9.13,4.1-9.13,9.13s4.1,9.13,9.13,9.13,9.13-4.1,9.13-9.13-4.1-9.13-9.13-9.13Z"/>
  <path class="cls-3" d="M32.91,32.61h-10.37s.58-.07.58-3.53c0-2.54,2.06-4.61,4.61-4.61s4.61,2.06,4.61,4.61c0,3.54.58,3.53.58,3.53h0Z"/>
  <path class="cls-1" d="M27.72,35.13c.92,0,1.67-.75,1.67-1.67s-.75-1.67-1.67-1.67-1.67.75-1.67,1.67.75,1.67,1.67,1.67Z"/>
  <path class="cls-1" d="M29.39,24.17c0-.05,0-.1,0-.16,0-.92-.75-1.67-1.67-1.67s-1.67.75-1.67,1.67c0,.05,0,.1,0,.16h3.33Z"/>
  <path class="cls-1" d="M32.91,33.39h-10.37c-.41,0-.75-.32-.78-.73-.02-.26.1-.5.29-.66.07-.18.29-.86.29-2.93,0-2.97,2.42-5.39,5.39-5.39s5.39,2.42,5.39,5.39c0,2.02.2,2.72.27,2.92.18.14.3.36.31.62,0,.43-.34.78-.77.78h0,0ZM23.7,31.83h8.03c-.11-.6-.18-1.47-.18-2.75,0-2.11-1.72-3.83-3.83-3.83s-3.83,1.72-3.83,3.83c0,1.17-.06,2.08-.19,2.75h0Z"/>
</svg>