<?xml version="1.0" encoding="UTF-8"?>
<svg id="Capa_1" xmlns="http://www.w3.org/2000/svg" viewBox="0 0 42 42">
  <defs>
    <style>
      .cls-1 {
        fill: #007934;
      }

      .cls-2 {
        fill: #fff;
      }

      .cls-3 {
        fill: #78d201;
      }
    </style>
  </defs>
  <path class="cls-1" d="M32.28,39.5H9.02c-2.74,0-4.97-2.23-4.97-4.97v-12.21c0-2.74,2.23-4.97,4.97-4.97h23.26c2.74,0,4.97,2.23,4.97,4.97v12.21c0,2.74-2.23,4.97-4.97,4.97h0ZM9.02,19.09c-1.78,0-3.23,1.45-3.23,3.23v12.21c0,1.78,1.45,3.23,3.23,3.23h23.26c1.78,0,3.23-1.45,3.23-3.23v-12.21c0-1.78-1.45-3.23-3.23-3.23H9.02Z"/>
  <path class="cls-1" d="M20.65,32.31c-.15,0-.3-.04-.44-.12l-15.73-9.12c-.27-.15-.43-.44-.43-.75,0-2.74,2.23-4.97,4.97-4.97h23.26c2.74,0,4.97,2.23,4.97,4.97,0,.31-.17.6-.43.75l-15.73,9.12c-.14.08-.28.12-.44.12h0ZM5.82,21.84l14.82,8.6,14.82-8.6c-.23-1.55-1.58-2.75-3.19-2.75H9.02c-1.62,0-2.96,1.2-3.19,2.75Z"/>
  <path class="cls-3" d="M20.65,31.44l-15.73-9.12c0-6.16,15.68-14.08,15.68-14.08,0,0,15.78,8.55,15.78,14.08l-15.73,9.12Z"/>
  <path class="cls-1" d="M20.65,32.31c-.15,0-.3-.04-.44-.12l-15.73-9.12c-.27-.15-.43-.44-.43-.75,0-2.85,2.76-6.24,8.21-10.06,3.93-2.75,7.78-4.71,7.95-4.79.25-.13.56-.12.81.01.04.02,4.04,2.2,7.98,5.02,5.55,3.98,8.25,7.19,8.25,9.81,0,.31-.17.6-.43.75l-15.73,9.12c-.14.08-.29.12-.44.12ZM5.83,21.84l14.82,8.6,14.81-8.59c-.27-1.3-1.72-3.8-7.46-7.92-3.14-2.25-6.32-4.08-7.41-4.7-4.33,2.24-14.08,8.18-14.76,12.61Z"/>
  <path class="cls-1" d="M32.28,39.5H9.02c-2.74,0-4.97-2.23-4.97-4.97,0-.31.16-.59.43-.75l10.4-6.12c.27-.16.6-.16.87,0l4.9,2.79,4.78-2.7c.27-.15.59-.15.86,0l10.52,6.03c.27.15.44.44.44.75,0,2.74-2.23,4.97-4.97,4.97h0ZM5.82,35.01c.23,1.56,1.58,2.75,3.2,2.75h23.26c1.62,0,2.96-1.19,3.19-2.75l-9.62-5.52-4.78,2.7c-.27.15-.59.15-.86,0l-4.89-2.78-9.51,5.6h0Z"/>
  <path class="cls-3" d="M37.86,7.58l-5.48.09c-.08-.37-.11-.75-.09-1.13.01-.25.17-2.86,1.99-3.45.91-.28,1.91-.05,2.6.62.42.43.54.94.76,1.85.16.67.24,1.35.24,2.03h0Z"/>
  <path class="cls-1" d="M31.68,6.01c0-.99.43-1.94,1.19-2.58.33-.28.72-.49,1.14-.6.32-.09.64-.14.97-.14,1.81.02,3.26,1.51,3.24,3.31v1.37c0,.45-.37.82-.82.82h-5.72v-2.2h0ZM37.13,6.01c0-1.2-.98-2.18-2.18-2.18s-2.18.98-2.18,2.18v1.1h4.36v-1.1Z"/>
  <path class="cls-1" d="M31.51,6.01c0-1.04.45-2.04,1.25-2.71.35-.3.76-.51,1.2-.64,1.06-.31,2.21-.1,3.09.58.86.66,1.36,1.69,1.35,2.77v1.37c0,.55-.45,1-1,1h-5.89v-2.37h0ZM34.95,2.87c-.3,0-.6.04-.89.12-.39.11-.76.3-1.07.57-.72.61-1.13,1.5-1.13,2.44v2.02h5.54c.36,0,.65-.29.65-.65v-1.37c.02-.98-.43-1.9-1.21-2.49-.54-.42-1.21-.64-1.89-.64h0ZM32.6,6.01c0-1.3,1.05-2.35,2.35-2.35s2.35,1.05,2.35,2.35v1.27h-4.71v-1.27ZM36.96,6.01c0-1.11-.9-2.01-2.01-2.01s-2.01.9-2.01,2.01v.92h4.01v-.92h0Z"/>
  <path class="cls-1" d="M10.08,24.31V6.55c0-1.41,1.13-2.55,2.53-2.57h19.54c-.42.59-.64,1.3-.64,2.02v18.13l1.42-.82V6c0-.54.21-1.05.59-1.43.38-.38.89-.59,1.42-.59h.19v-1.45H12.61c-2.21.01-4,1.81-3.99,4.02v16.91l1.46.84Z"/>
  <path class="cls-2" d="M20.65,30.43l10.86-6.3V6c0-.72.22-1.43.64-2.02H12.61c-1.41.02-2.53,1.17-2.53,2.57v17.75l10.57,6.13h0Z"/>
  <path class="cls-1" d="M28.41,19.32h-15.25c-.3,0-.55.25-.55.55s.25.55.55.55h15.25c.3,0,.55-.25.55-.55s-.25-.55-.55-.55Z"/>
  <path class="cls-1" d="M12.44,19.87c0-.4.32-.72.72-.72h15.25c.4,0,.72.33.72.72,0,.4-.32.72-.72.72h-15.25c-.4,0-.72-.33-.72-.72ZM13.16,19.49c-.21,0-.38.17-.38.38s.17.38.38.38h15.25c.21,0,.38-.17.38-.38s-.17-.38-.38-.38h-15.25Z"/>
  <path class="cls-3" d="M16.5,16.63c2.36,0,4.27-1.91,4.27-4.27s-1.91-4.27-4.27-4.27-4.27,1.91-4.27,4.27,1.91,4.27,4.27,4.27Z"/>
  <path class="cls-1" d="M15.81,14.78h1.37c.76,0,1.37-.62,1.37-1.38,0-.19-.15-.34-.34-.34s-.34.15-.34.34c0,.38-.31.69-.69.69h-1.37c-.38,0-.68-.33-.68-.71,0-.37.31-.67.68-.68h1.37c.76,0,1.38-.62,1.38-1.38s-.62-1.38-1.38-1.38h-1.37c-.76,0-1.37.62-1.37,1.38,0,.19.15.34.34.34s.34-.15.34-.34c0-.38.31-.69.69-.69h1.37c.38,0,.68.32.68.71,0,.37-.31.67-.68.68h-1.37c-.76,0-1.38.62-1.38,1.39s.62,1.38,1.38,1.38h0Z"/>
  <path class="cls-1" d="M14.31,13.39c0-.4.16-.78.44-1.06.28-.28.66-.44,1.06-.44h1.37c.31,0,.55-.25.56-.56,0-.15-.05-.3-.16-.41-.1-.11-.25-.17-.4-.18h-1.37c-.15,0-.3.06-.4.17-.11.11-.17.25-.17.4,0,.26-.21.46-.46.46-.12,0-.24-.05-.33-.14-.09-.09-.14-.2-.14-.33,0-.4.15-.78.43-1.06.28-.28.66-.44,1.06-.44h1.37c.83,0,1.5.67,1.5,1.5,0,.83-.67,1.5-1.5,1.5h-1.37c-.31,0-.55.25-.56.56,0,.15.05.3.16.41.1.11.25.17.4.18h1.37c.15,0,.3-.06.4-.17.11-.11.17-.25.17-.4,0-.12.05-.24.14-.33.09-.09.21-.14.33-.14.26,0,.46.21.46.46,0,.83-.67,1.5-1.49,1.5h-1.37c-.83,0-1.5-.67-1.5-1.5h0ZM18.21,13.17c-.06,0-.12.02-.16.06-.04.04-.07.1-.07.16,0,.22-.08.42-.23.57-.15.15-.36.24-.57.24h-1.38c-.22,0-.42-.09-.57-.25-.15-.15-.23-.36-.23-.58,0-.44.36-.79.8-.79h1.37c.7,0,1.26-.57,1.26-1.26,0-.7-.56-1.26-1.26-1.26h-1.37c-.33,0-.65.13-.89.37-.24.24-.37.56-.36.89,0,.06.02.12.06.16s.1.07.16.07c.12,0,.22-.1.22-.22,0-.21.08-.42.23-.57.15-.15.36-.24.57-.24h1.38c.22,0,.42.09.57.25.15.15.23.36.23.58,0,.44-.36.79-.8.79h-1.37c-.34,0-.66.13-.89.37-.24.24-.37.56-.37.89,0,.7.57,1.26,1.26,1.26h1.37c.7,0,1.25-.57,1.25-1.26,0-.12-.1-.22-.22-.22h0Z"/>
  <path class="cls-1" d="M16.5,10.29c.19,0,.34-.15.34-.34v-.69c0-.19-.15-.34-.34-.34-.19,0-.34.15-.34.34v.69c0,.19.15.34.34.35h0Z"/>
  <path class="cls-1" d="M16.03,9.95v-.69c0-.26.21-.46.46-.46s.46.21.46.46v.69c0,.26-.21.46-.46.47-.26,0-.46-.21-.46-.46ZM16.5,9.03c-.12,0-.22.1-.22.22v.69c0,.12.1.22.22.22s.22-.1.22-.23v-.69c0-.12-.1-.22-.22-.22Z"/>
  <path class="cls-1" d="M16.5,15.82c.19,0,.34-.15.34-.34v-1.04c0-.19-.15-.34-.34-.34s-.34.15-.34.34v1.04c0,.19.15.34.34.34h0Z"/>
  <path class="cls-1" d="M16.5,15.94c-.26,0-.46-.21-.46-.46v-1.04c0-.26.21-.46.46-.46s.46.21.46.46v1.04c0,.26-.21.46-.46.47ZM16.5,14.21c-.12,0-.22.1-.22.22v1.04c0,.12.1.22.22.22s.22-.1.22-.23v-1.04c0-.12-.1-.22-.22-.22Z"/>
  <path class="cls-1" d="M28.41,10.34h-5.06c-.3,0-.55.25-.55.55s.25.55.55.55h5.06c.3,0,.55-.25.55-.55s-.25-.55-.55-.55Z"/>
  <path class="cls-1" d="M22.63,10.89c0-.4.32-.72.72-.72h5.06c.4,0,.72.33.72.72,0,.4-.33.72-.72.72h-5.06c-.4,0-.72-.33-.72-.72ZM23.35,10.51c-.21,0-.38.17-.38.38s.17.38.38.38h5.06c.21,0,.38-.17.38-.38s-.17-.38-.38-.38h-5.06Z"/>
  <path class="cls-1" d="M28.41,13.64h-5.06c-.3,0-.55.25-.55.55s.25.55.55.55h5.06c.3,0,.55-.25.55-.55s-.25-.55-.55-.55Z"/>
  <path class="cls-1" d="M22.63,14.19c0-.4.32-.72.72-.72h5.06c.4,0,.72.32.72.72,0,.4-.33.72-.72.72h-5.06c-.4,0-.72-.32-.72-.72ZM23.35,13.81c-.21,0-.38.17-.38.38s.17.38.38.38h5.06c.21,0,.38-.17.38-.38s-.17-.38-.38-.38h-5.06Z"/>
  <path class="cls-1" d="M28.41,22.62h-15.25c-.3,0-.55.25-.55.55s.25.55.55.55h15.25c.3,0,.55-.25.55-.55s-.25-.55-.55-.55Z"/>
  <path class="cls-1" d="M12.44,23.17c0-.4.32-.72.72-.72h15.25c.4,0,.72.32.72.72,0,.4-.32.72-.72.72h-15.25c-.4,0-.72-.33-.72-.72ZM13.16,22.79c-.21,0-.38.17-.38.38s.17.38.38.38h15.25c.21,0,.38-.17.38-.38s-.17-.38-.38-.38h-15.25Z"/>
</svg>