<?xml version="1.0" encoding="UTF-8"?>
<svg id="Capa_1" xmlns="http://www.w3.org/2000/svg" viewBox="0 0 42 42">
  <defs>
    <style>
      .cls-1 {
        fill: #fff;
      }

      .cls-2 {
        fill: #077c36;
      }

      .cls-3 {
        fill: #7ad400;
      }
    </style>
  </defs>
  <path class="cls-2" d="M10.41,16.63v-5.3c-1.03-.08-2.07-.09-3.1-.04v5.25c1.03.04,2.06.11,3.1.09Z"/>
  <g>
    <polygon class="cls-2" points="26.9 34.75 26.89 34.75 26.9 34.75 26.9 34.75"/>
    <path class="cls-2" d="M34.09,12.1c-2.99-2.99-5.98-5.99-8.98-8.99-.39-.39-.92-.6-1.48-.58h-11.71c-2.55,0-4.61,2.07-4.61,4.61v1.87h2.12v-1.86c.04-.87.58-2.12,1.47-2.12,2.54,0,9.65.13,12.2.13,0,.66,0,1.96.04,2.64-.03,1.15,0,2.31.11,3.46.3,2.03,1.42,2.72,3.46,2.75,1.44.03,2.88,0,4.3,0l1.56-.14v5.77c0,2.91.08,10.2.08,13.12,0,1.29-1.6,2.01-2.88,2.01h-2.91.05s-15.42-.01-15.42-.01c-1.41,0-2.05-1.37-2.05-2.77v-13.09h-2.12v13.59c.04,2.44,1.98,4.42,4.42,4.53h5.94l.25-.06-.25.06c2.38,0,10.6.06,12.55.06,2.41-.08,4.34-2,4.42-4.41.04-5.26.04-14.02.04-19.27h0c0-.49-.21-.96-.58-1.29ZM26.51,11.73h0c-.67-.12-1.15-.7-1.15-1.38,0-.78-.19-3.05-.19-3.87l5.13,5.32c-1.26.12-2.54.09-3.79-.08Z"/>
  </g>
  <path class="cls-2" d="M9.32,7.95C4.39,7.95.38,11.95.38,16.88s4.01,8.93,8.93,8.93,8.93-4.01,8.93-8.93S14.24,7.95,9.32,7.95Z"/>
  <path class="cls-1" d="M4.61,18.62c0,.27-.05.48-.14.61-.09.13-.24.2-.43.2s-.34-.07-.43-.2c-.09-.13-.14-.34-.14-.61v-3.47c0-.31.06-.52.18-.63.12-.11.32-.17.61-.17h1.03c.57,0,1.02.15,1.34.46.33.31.49.72.49,1.25s-.15.95-.46,1.25c-.31.3-.74.45-1.28.45h-.77v.86ZM4.61,16.72h.49c.26,0,.46-.06.59-.17.13-.11.2-.28.2-.5s-.06-.39-.19-.5c-.13-.11-.32-.16-.59-.16h-.49v1.32h0Z"/>
  <path class="cls-1" d="M9.46,14.35c.32,0,.6.03.85.09.24.06.46.15.65.27.33.21.59.5.78.88.19.37.28.78.28,1.23,0,.79-.22,1.41-.66,1.87-.44.46-1.04.69-1.8.69h-1.04c-.3,0-.5-.05-.61-.15-.11-.1-.17-.29-.17-.57v-3.5c0-.31.06-.52.18-.63.12-.11.32-.17.61-.17h.92ZM8.89,18.31h.52c.46,0,.8-.12,1.03-.38.23-.25.34-.63.34-1.14,0-.46-.11-.81-.35-1.04-.23-.23-.58-.35-1.04-.35h-.5v2.9Z"/>
  <path class="cls-1" d="M14.75,14.35c.27,0,.47.04.61.13.14.09.2.22.2.41s-.07.31-.2.4c-.13.09-.34.13-.61.13h-.93v.9h.8c.27,0,.48.04.61.13.13.09.2.22.2.4s-.07.31-.2.4c-.13.09-.34.13-.61.13h-.8v1.25c0,.27-.05.48-.14.61-.09.13-.24.2-.43.2s-.34-.07-.43-.2c-.09-.13-.14-.34-.14-.61v-3.47c0-.31.06-.52.18-.63.12-.11.32-.17.61-.17h1.29Z"/>
  <path class="cls-3" d="M32.16,38.43c-.64,0-1.25-.25-1.7-.71-.93-.94-.93-2.47,0-3.41l2.09-2.1h-8.39c-1.33,0-2.41-1.08-2.41-2.41s1.08-2.41,2.41-2.41h8.29l-2-2.01c-.93-.94-.93-2.47,0-3.41.46-.46,1.06-.71,1.7-.71s1.25.25,1.7.71l6.14,6.17c.93.94.93,2.47,0,3.41l-6.14,6.17c-.46.46-1.06.71-1.7.71h0Z"/>
  <path class="cls-1" d="M32.16,22.33c.35,0,.69.13.95.4l6.14,6.17c.53.53.53,1.39,0,1.92l-6.14,6.17c-.26.27-.61.4-.95.4s-.69-.13-.95-.4c-.53-.53-.53-1.39,0-1.92l3.89-3.91h-10.93c-.74,0-1.35-.61-1.35-1.35s.6-1.35,1.35-1.35h10.83l-3.79-3.81c-.53-.53-.53-1.39,0-1.92.26-.27.61-.4.95-.4M32.16,20.22c-.93,0-1.8.36-2.45,1.02-1.34,1.35-1.34,3.55,0,4.9l.21.21h-5.75c-1.91,0-3.46,1.56-3.46,3.47s1.55,3.47,3.46,3.47h5.84l-.3.3c-1.34,1.35-1.34,3.55,0,4.9.65.66,1.53,1.02,2.45,1.02s1.8-.36,2.45-1.02l6.14-6.17c1.34-1.35,1.34-3.55,0-4.9l-6.14-6.17c-.65-.66-1.53-1.02-2.45-1.02h0Z"/>
</svg>