<?xml version="1.0" encoding="UTF-8"?>
<svg id="Capa_1" xmlns="http://www.w3.org/2000/svg" viewBox="0 0 42 42">
  <defs>
    <style>
      .cls-1 {
        fill: #007934;
      }

      .cls-2 {
        fill: #fff;
      }

      .cls-3 {
        fill: #78d201;
      }
    </style>
  </defs>
  <path class="cls-1" d="M10.09,11.28h7.41c.46,0,.83-.37.83-.83s-.37-.83-.83-.83h-7.41c-.46,0-.83.37-.83.83s.37.83.83.83Z"/>
  <path class="cls-1" d="M10.09,16.16h11.21c.46,0,.83-.37.83-.83s-.37-.83-.83-.83h-11.21c-.46,0-.83.37-.83.83s.37.83.83.83Z"/>
  <path class="cls-1" d="M10.09,21.04h4.07c.46,0,.83-.37.83-.83s-.37-.83-.83-.83h-4.07c-.46,0-.83.37-.83.83s.37.83.83.83Z"/>
  <path class="cls-1" d="M37.25,20.54c-1.96-1.64-4.25-2.72-6.69-3.2v-6.65c0-.05,0-.11-.02-.16,0-.03-.02-.07-.03-.1,0-.02,0-.04-.02-.06-.01-.04-.03-.07-.06-.1,0-.01-.01-.03-.02-.04-.03-.04-.06-.09-.1-.13l-7.36-7.36s-.08-.07-.13-.1c-.01,0-.02-.01-.04-.02-.03-.02-.07-.04-.1-.06-.02,0-.04-.01-.06-.02-.03-.01-.06-.02-.1-.03-.05-.01-.11-.02-.16-.02h-13.3c-2.55,0-4.62,2.07-4.62,4.62v23.42c0,2.55,2.07,4.62,4.62,4.62h12.02c.46,0,.83-.37.83-.83s-.37-.83-.83-.83h-12.02c-1.64,0-2.97-1.33-2.97-2.97V7.13c0-1.64,1.33-2.97,2.97-2.97h12.47v6.54c0,.46.37.83.83.83h6.54v5.6c-.82-.06-1.66-.07-2.5,0-3.95.35-7.53,2.21-10.07,5.25-1.48,1.77-2.53,3.86-3.06,6.1l-.91-1.69c-.22-.4-.72-.55-1.12-.33-.4.22-.55.72-.33,1.12l1.69,3.12c.1.19.28.34.49.4.08.02.16.03.24.03.14,0,.27-.03.39-.1l3.12-1.69c.4-.22.55-.72.33-1.12-.22-.4-.72-.55-1.12-.33l-1.07.58c.5-1.84,1.39-3.56,2.62-5.02,2.26-2.7,5.44-4.36,8.96-4.67,3.51-.31,6.93.77,9.63,3.03.35.29.87.25,1.16-.1.29-.35.25-.87-.1-1.16h0ZM23.2,5.33l4.54,4.54h-4.54v-4.54Z"/>
  <path class="cls-3" d="M27.58,39.51c4.98,0,9.02-4.04,9.02-9.02s-4.04-9.02-9.02-9.02-9.02,4.04-9.02,9.02,4.04,9.02,9.02,9.02Z"/>
  <path class="cls-2" d="M32.81,32.54h-5.45c-.68,0-1.23-.55-1.23-1.23v-5.7c0-.68.55-1.23,1.23-1.23s1.23.55,1.23,1.23v4.47h4.22c.68,0,1.23.55,1.23,1.23s-.55,1.23-1.23,1.23Z"/>
</svg>