<?xml version="1.0" encoding="UTF-8"?>
<svg id="Capa_1" xmlns="http://www.w3.org/2000/svg" viewBox="0 0 60.85 25.79">
  <defs>
    <style>
      .cls-1, .cls-2 {
        fill: #231f20;
      }

      .cls-1, .cls-3 {
        fill-rule: evenodd;
      }

      .cls-3 {
        fill: #b7b8bb;
      }
    </style>
  </defs>
  <g id="Capa_2">
    <g id="Capa_1-2">
      <g id="superservicios">
        <path id="Path_48" class="cls-2" d="M21.9,14.46h-.42l-1.64-4.46h.85l1,3,1.06-3h.84l-1.69,4.46Z"/>
        <path id="Path_49" class="cls-2" d="M24.22,14.4v-2.58h-.41v-.61h1.19v3.19h-.78ZM24.6,10c.12,0,.23.05.31.13.08.08.13.19.13.3,0,.12-.05.23-.13.31-.17.16-.44.16-.61,0-.08-.08-.13-.19-.13-.31,0-.24.19-.42.43-.43"/>
        <path id="Path_50" class="cls-2" d="M25.61,15.22l.47-.58c.38.34.92.44,1.4.26.12-.03.2-.14.21-.26,0-.19-.16-.29-.47-.29h-.74c-.51,0-.77-.19-.77-.56,0-.11.05-.22.12-.31.09-.09.19-.17.3-.23-.35-.21-.55-.59-.53-1-.02-.32.12-.64.37-.84.25-.23.58-.35.92-.34.25,0,.49.05.71.16l.3-.34.52.47-.36.26c.3.48.24,1.11-.14,1.53-.23.22-.53.34-.85.33h-.33c-.06,0-.11.03-.16.06-.09.05-.14.09-.14.14s.07.12.2.12c.1,0,.21-.02.31-.05.12-.01.25-.01.37,0,.73,0,1.1.29,1.1.87,0,.31-.17.6-.44.76-.32.18-.68.28-1.05.27-.48,0-.95-.14-1.33-.43M26.35,12.33c0,.17.05.33.15.46.11.11.26.17.42.17.16.01.31-.05.41-.17.1-.13.15-.29.15-.46,0-.15-.06-.3-.16-.41-.1-.11-.25-.17-.4-.16-.3-.02-.56.21-.58.51v.06"/>
        <path id="Path_51" class="cls-2" d="M29.11,14.4v-2.58h-.41v-.61h1.16v3.19h-.75ZM29.49,10c.12,0,.23.05.31.13.08.08.13.19.13.3,0,.12-.05.23-.13.31-.08.08-.2.12-.31.12-.11,0-.22-.04-.3-.12-.09-.08-.14-.19-.14-.31,0-.12.05-.23.14-.3.08-.08.19-.13.3-.13"/>
        <path id="Path_52" class="cls-2" d="M30.85,10l.75-.18v3.59c0,.39.12.62.35.7-.11.22-.34.35-.59.33-.33,0-.51-.23-.51-.7v-3.74Z"/>
        <path id="Path_53" class="cls-2" d="M34.3,14.08c-.08.13-.21.23-.35.28-.17.06-.34.1-.52.1-.29.02-.58-.08-.81-.26-.21-.18-.32-.45-.3-.73,0-.34.15-.67.42-.87.35-.23.76-.34,1.18-.31.11,0,.21.02.31.05,0-.38-.23-.57-.72-.57-.24,0-.48.04-.7.14l-.16-.58c.29-.13.6-.19.92-.19.39-.03.77.09,1.07.34.28.36.4.8.36,1.25v.69c0,.42.09.69.25.8-.04.09-.11.16-.2.2-.09.01-.17.01-.26,0-.11,0-.21-.04-.29-.12-.08-.07-.14-.16-.18-.26M34.26,12.86c-.1,0-.19,0-.29,0-.59,0-.88.19-.88.57s.16.43.5.43c.32.05.62-.17.67-.49.01-.06.01-.12,0-.18v-.33Z"/>
        <path id="Path_54" class="cls-2" d="M37.83,14.4v-.2c-.08.09-.19.15-.31.18-.15.05-.3.08-.46.08-.4.02-.8-.15-1.06-.46-.28-.32-.42-.74-.39-1.17-.02-.45.14-.89.44-1.23.28-.32.68-.5,1.1-.49.23,0,.46.05.66.16v-1.27l.75-.18v4.58h-.73ZM37.83,11.97c-.13-.12-.31-.19-.49-.19-.26-.01-.51.08-.69.26-.17.23-.26.51-.24.79,0,.67.32,1,1,1,.09,0,.18-.02.26-.06.08-.02.15-.07.2-.13l-.04-1.67Z"/>
        <path id="Path_55" class="cls-2" d="M39.11,12.79c-.01-.43.14-.86.43-1.18.29-.31.7-.48,1.12-.47.42-.02.83.14,1.12.45.54.72.54,1.7,0,2.42-.63.6-1.63.6-2.26,0-.28-.34-.42-.78-.4-1.22M39.89,12.79c0,.71.25,1.06.77,1.06.22,0,.42-.1.55-.27.15-.24.22-.51.21-.79,0-.68-.26-1-.76-1-.22,0-.43.1-.56.28-.15.23-.22.49-.21.76"/>
        <path id="Path_56" class="cls-2" d="M20.06,19.72l.28-.69c.26.2.58.31.91.32.45,0,.69-.15.69-.47,0-.16-.06-.31-.17-.43-.19-.19-.41-.35-.66-.45-.24-.11-.47-.26-.68-.42-.12-.11-.21-.24-.27-.38-.06-.16-.09-.33-.09-.5,0-.32.13-.63.37-.84.26-.23.6-.35.95-.33.39-.03.79.06,1.12.28l-.24.67c-.25-.19-.56-.29-.87-.3-.15-.01-.3.04-.4.15-.11.09-.16.23-.16.37,0,.25.28.51.84.78.23.1.44.23.63.39.13.12.23.26.29.42.07.17.11.35.1.54.02.34-.14.66-.42.86-.32.25-.72.38-1.12.35-.39,0-.77-.1-1.1-.31"/>
        <path id="Path_57" class="cls-2" d="M25.4,20v-.3c-.13.11-.27.18-.43.23-.16.06-.34.09-.51.1-.74,0-1.12-.4-1.12-1.18v-2.07h.75v2c0,.41.18.61.56.61.17,0,.33-.04.47-.13.12-.07.22-.17.28-.3v-2.18h.75v3.22h-.75Z"/>
        <path id="Path_58" class="cls-2" d="M27.64,19.88v1.34h-.74v-4.45h.74v.23c.18-.19.43-.29.69-.28,1,0,1.52.56,1.52,1.68.03.44-.12.88-.42,1.21-.31.29-.73.44-1.15.42-.22,0-.44-.05-.64-.15M27.64,17.56v1.68c.13.11.3.17.47.17.27.02.54-.07.75-.25.3-.48.3-1.1,0-1.58-.21-.17-.48-.25-.75-.22-.18,0-.35.07-.47.2"/>
        <path id="Path_59" class="cls-2" d="M33.36,18.6h-2.28c0,.22.09.44.26.59.19.15.42.22.66.21.28.03.56-.07.77-.26l.29.57c-.34.24-.76.35-1.18.32-.43.02-.84-.14-1.15-.43-.3-.32-.45-.75-.42-1.19-.02-.46.14-.9.46-1.23.29-.3.7-.47,1.12-.47.41-.01.81.14,1.11.42.29.28.44.66.43,1.06,0,.14-.03.28-.07.41M31.11,18h1.57c0-.38-.31-.7-.69-.71h-.09c-.41-.02-.76.29-.79.7"/>
        <path id="Path_60" class="cls-2" d="M35.87,17.47c-.13-.09-.29-.13-.45-.13-.18,0-.35.09-.45.24-.14.16-.21.36-.2.57v1.85h-.77v-3.2h.75v.29c.21-.23.52-.36.83-.35.2-.01.41.03.59.12l-.3.61Z"/>
        <path id="Path_61" class="cls-2" d="M36.43,19.76l.27-.59c.21.17.48.26.75.26.29,0,.43-.1.43-.31,0-.11-.04-.22-.12-.3-.16-.11-.33-.2-.51-.28-.56-.22-.83-.54-.83-.95-.01-.26.11-.5.32-.65.23-.16.52-.24.8-.23.32,0,.64.07.93.22l-.2.58c-.2-.15-.44-.22-.69-.21-.26,0-.39.11-.39.31.01.09.06.17.13.23.17.11.36.2.55.26.23.08.44.22.6.4.13.16.19.36.19.57.01.27-.11.54-.33.7-.26.19-.58.28-.9.26-.17,0-.35-.01-.52-.05-.17-.06-.33-.13-.49-.22"/>
        <path id="Path_62" class="cls-2" d="M42.11,18.6h-2.29c0,.23.1.44.27.59.19.14.42.22.65.21.28.02.57-.07.78-.26l.29.57c-.34.24-.75.35-1.17.32-.43.02-.85-.13-1.16-.43-.3-.32-.46-.75-.43-1.19-.02-.46.15-.9.46-1.23.62-.6,1.59-.62,2.24-.05.28.28.44.66.42,1.06,0,.14-.03.28-.06.41M39.86,18h1.57c0-.39-.31-.7-.7-.71h-.08c-.41-.02-.76.29-.79.7"/>
        <path id="Path_63" class="cls-2" d="M44.61,17.47c-.13-.09-.28-.13-.43-.13-.18,0-.36.09-.46.24-.14.16-.21.36-.2.57v1.85h-.75v-3.2h.75v.29c.21-.24.51-.37.83-.35.2-.01.4.03.58.12l-.32.61Z"/>
        <path id="Path_64" class="cls-2" d="M46.7,20h-.27l-1.43-3.23h.82l.77,1.95.81-1.95h.79l-1.49,3.23Z"/>
        <path id="Path_65" class="cls-2" d="M48.8,20v-2.61h-.42v-.62h1.16v3.23h-.74ZM49.18,15.56c.11,0,.22.05.3.13.16.17.16.43,0,.6h0c-.08.08-.19.13-.3.13-.12,0-.23-.04-.31-.13-.17-.17-.17-.44,0-.61,0,0,0,0,0,0,.08-.08.19-.13.31-.13"/>
        <path id="Path_66" class="cls-2" d="M52.92,17l-.32.56c-.19-.17-.44-.26-.7-.24-.26-.02-.5.09-.67.28-.17.22-.26.5-.25.78,0,.67.32,1,1,1,.27,0,.53-.09.73-.27l.27.58c-.17.12-.36.21-.56.26-.19.04-.38.06-.57.06-.93-.04-1.65-.83-1.6-1.75.02-.41.19-.8.47-1.1.61-.54,1.51-.61,2.2-.16"/>
        <path id="Path_67" class="cls-2" d="M53.74,20v-2.61h-.41v-.62h1.17v3.23h-.76ZM54.12,15.56c.12,0,.23.05.31.13.17.17.17.44,0,.61-.17.17-.44.17-.61,0h0c-.17-.17-.17-.44,0-.61,0,0,0,0,0,0h0c.08-.08.19-.13.3-.13"/>
        <path id="Path_68" class="cls-2" d="M55.15,18.36c-.02-.44.14-.86.43-1.19.29-.31.69-.48,1.11-.46.42-.02.83.14,1.13.44.28.34.42.77.4,1.21.03.44-.12.88-.41,1.22-.29.3-.7.46-1.12.44-.43.03-.85-.14-1.14-.45-.27-.34-.42-.77-.4-1.21M55.93,18.36c0,.7.26,1.06.76,1.06.22,0,.42-.1.56-.27.15-.24.22-.51.2-.79,0-.69-.25-1-.76-1-.22,0-.42.1-.55.27-.15.23-.23.5-.21.77"/>
        <path id="Path_69" class="cls-2" d="M58.62,19.76l.26-.59c.22.17.48.26.76.26.29,0,.44-.1.44-.31,0-.12-.05-.22-.14-.3-.16-.12-.33-.21-.51-.28-.55-.22-.82-.54-.82-.95-.01-.25.11-.5.31-.65.24-.16.52-.24.81-.23.33,0,.65.08.94.22l-.22.58c-.19-.15-.44-.23-.68-.21-.25,0-.39.11-.39.31.01.09.06.17.13.23.17.11.36.19.55.26.23.08.44.22.6.4.13.16.19.36.19.57.01.27-.11.53-.33.7-.26.19-.58.28-.9.26-.17,0-.34-.01-.51-.05-.17-.06-.34-.13-.5-.22"/>
        <path id="Path_70" class="cls-3" d="M7.3,25.78c-.35-.05-.69-.17-1-.35l-6.3-3.73c.1-.93.53-1.79,1.22-2.42,1.03-.71,2.39-.75,3.46-.1l2.62,1.55v5.05Z"/>
        <path id="Path_71" class="cls-3" d="M7.3,20.73l7.1-4.21v5.3l-6.09,3.61c-.31.18-.65.3-1,.36v-5.06Z"/>
        <path id="Path_72" class="cls-3" d="M4.87,13l2.44-1.45,2.62,1.56c1.07.65,2.43.61,3.46-.11.69-.63,1.12-1.49,1.21-2.42l-6.27-3.76c-.31-.18-.65-.3-1-.36-.35.05-.69.17-1,.36L.4,10.31l4.47,2.69Z"/>
        <path id="Path_73" class="cls-1" d="M.2,15.74v-5.3l7.1,4.23v5.33L.2,15.74Z"/>
        <path id="Path_74" class="cls-1" d="M7.31,5.7c-1.57,0-2.85-1.28-2.85-2.85S5.74,0,7.31,0s2.85,1.28,2.85,2.85h0c0,1.57-1.28,2.85-2.85,2.85"/>
      </g>
    </g>
  </g>
</svg>